<?xml version="1.0" encoding="UTF-8"?>
<svg xmlns="http://www.w3.org/2000/svg" xmlns:xlink="http://www.w3.org/1999/xlink" width="14px" height="14px" viewBox="0 0 14 14" version="1.1">
<defs>
<linearGradient id="linear0" gradientUnits="userSpaceOnUse" x1="10.489" y1="6.83" x2="19.006" y2="15.346" gradientTransform="matrix(0.583333,0,0,0.583333,0,0)">
<stop offset="0" style="stop-color:rgb(0%,0%,0%);stop-opacity:0.101961;"/>
<stop offset="1" style="stop-color:rgb(0%,0%,0%);stop-opacity:0;"/>
</linearGradient>
<linearGradient id="linear1" gradientUnits="userSpaceOnUse" x1="2.815" y1="7.419" x2="21.796" y2="16.27" gradientTransform="matrix(0.583333,0,0,0.583333,0,0)">
<stop offset="0" style="stop-color:rgb(100%,100%,100%);stop-opacity:0.2;"/>
<stop offset="1" style="stop-color:rgb(100%,100%,100%);stop-opacity:0;"/>
</linearGradient>
</defs>
<g id="surface1">
<path style=" stroke:none;fill-rule:nonzero;fill:rgb(18.823529%,23.529412%,25.882353%);fill-opacity:1;" d="M 2.042969 4.667969 C 1.558594 4.667969 1.167969 5.058594 1.167969 5.542969 L 1.167969 9.042969 C 1.167969 9.523438 1.558594 9.917969 2.042969 9.917969 C 2.523438 9.917969 2.917969 9.523438 2.917969 9.042969 L 2.917969 5.542969 C 2.917969 5.058594 2.523438 4.667969 2.042969 4.667969 Z M 2.042969 4.667969 "/>
<path style=" stroke:none;fill-rule:nonzero;fill:rgb(54.509804%,76.470588%,29.019608%);fill-opacity:1;" d="M 2.332031 9.042969 C 2.332031 9.203125 2.203125 9.332031 2.042969 9.332031 C 1.878906 9.332031 1.75 9.203125 1.75 9.042969 L 1.75 5.542969 C 1.75 5.378906 1.878906 5.25 2.042969 5.25 C 2.203125 5.25 2.332031 5.378906 2.332031 5.542969 Z M 2.332031 9.042969 "/>
<path style=" stroke:none;fill-rule:nonzero;fill:rgb(18.823529%,23.529412%,25.882353%);fill-opacity:1;" d="M 11.957031 4.667969 C 11.476562 4.667969 11.082031 5.058594 11.082031 5.542969 L 11.082031 9.042969 C 11.082031 9.523438 11.476562 9.917969 11.957031 9.917969 C 12.441406 9.917969 12.832031 9.523438 12.832031 9.042969 L 12.832031 5.542969 C 12.832031 5.058594 12.441406 4.667969 11.957031 4.667969 Z M 11.957031 4.667969 "/>
<path style=" stroke:none;fill-rule:nonzero;fill:rgb(54.509804%,76.470588%,29.019608%);fill-opacity:1;" d="M 12.25 9.042969 C 12.25 9.203125 12.121094 9.332031 11.957031 9.332031 C 11.796875 9.332031 11.667969 9.203125 11.667969 9.042969 L 11.667969 5.542969 C 11.667969 5.378906 11.796875 5.25 11.957031 5.25 C 12.121094 5.25 12.25 5.378906 12.25 5.542969 Z M 12.25 9.042969 "/>
<path style=" stroke:none;fill-rule:nonzero;fill:rgb(18.823529%,23.529412%,25.882353%);fill-opacity:1;" d="M 3.515625 3.765625 C 3.507812 3.847656 3.535156 3.929688 3.589844 3.988281 C 3.644531 4.050781 3.722656 4.082031 3.804688 4.082031 L 10.191406 4.082031 C 10.273438 4.082031 10.355469 4.050781 10.410156 3.988281 C 10.464844 3.929688 10.492188 3.847656 10.484375 3.765625 C 10.394531 2.769531 9.878906 1.859375 9.066406 1.269531 L 9.582031 0.445312 C 9.664062 0.308594 9.625 0.128906 9.488281 0.0429688 C 9.351562 -0.0429688 9.167969 0 9.085938 0.136719 L 8.570312 0.964844 C 8.097656 0.730469 7.566406 0.582031 7 0.582031 C 6.433594 0.582031 5.902344 0.730469 5.429688 0.964844 L 4.914062 0.136719 C 4.828125 0 4.648438 -0.0429688 4.511719 0.0429688 C 4.375 0.128906 4.332031 0.308594 4.417969 0.445312 L 4.929688 1.269531 C 4.121094 1.859375 3.605469 2.769531 3.515625 3.765625 Z M 3.515625 3.765625 "/>
<path style=" stroke:none;fill-rule:nonzero;fill:rgb(54.509804%,76.470588%,29.019608%);fill-opacity:1;" d="M 7 1.167969 C 8.386719 1.160156 9.585938 2.136719 9.855469 3.5 L 4.144531 3.5 C 4.414062 2.136719 5.613281 1.160156 7 1.167969 Z M 7 1.167969 "/>
<path style=" stroke:none;fill-rule:nonzero;fill:rgb(18.823529%,23.529412%,25.882353%);fill-opacity:1;" d="M 10.207031 4.667969 L 3.792969 4.667969 C 3.628906 4.667969 3.5 4.796875 3.5 4.957031 L 3.5 9.917969 C 3.5 10.558594 4.023438 11.082031 4.667969 11.082031 L 4.667969 13.125 C 4.667969 13.605469 5.058594 14 5.542969 14 C 6.023438 14 6.417969 13.605469 6.417969 13.125 L 6.417969 11.082031 L 7.582031 11.082031 L 7.582031 13.125 C 7.582031 13.605469 7.976562 14 8.457031 14 C 8.941406 14 9.332031 13.605469 9.332031 13.125 L 9.332031 11.082031 C 9.976562 11.082031 10.5 10.558594 10.5 9.917969 L 10.5 4.957031 C 10.5 4.796875 10.371094 4.667969 10.207031 4.667969 Z M 10.207031 4.667969 "/>
<path style=" stroke:none;fill-rule:nonzero;fill:rgb(54.509804%,76.470588%,29.019608%);fill-opacity:1;" d="M 9.917969 9.917969 C 9.917969 10.238281 9.65625 10.5 9.332031 10.5 L 9.042969 10.5 C 8.878906 10.5 8.75 10.628906 8.75 10.792969 L 8.75 13.125 C 8.75 13.285156 8.621094 13.417969 8.457031 13.417969 C 8.296875 13.417969 8.167969 13.285156 8.167969 13.125 L 8.167969 10.792969 C 8.167969 10.628906 8.035156 10.5 7.875 10.5 L 6.125 10.5 C 5.964844 10.5 5.832031 10.628906 5.832031 10.792969 L 5.832031 13.125 C 5.832031 13.285156 5.703125 13.417969 5.542969 13.417969 C 5.378906 13.417969 5.25 13.285156 5.25 13.125 L 5.25 10.792969 C 5.25 10.628906 5.121094 10.5 4.957031 10.5 L 4.667969 10.5 C 4.34375 10.5 4.082031 10.238281 4.082031 9.917969 L 4.082031 5.25 L 9.917969 5.25 Z M 9.917969 9.917969 "/>
<path style=" stroke:none;fill-rule:nonzero;fill:rgb(18.823529%,23.529412%,25.882353%);fill-opacity:1;" d="M 5.832031 2.625 C 5.832031 2.785156 5.703125 2.917969 5.542969 2.917969 C 5.378906 2.917969 5.25 2.785156 5.25 2.625 C 5.25 2.464844 5.378906 2.332031 5.542969 2.332031 C 5.703125 2.332031 5.832031 2.464844 5.832031 2.625 Z M 5.832031 2.625 "/>
<path style=" stroke:none;fill-rule:nonzero;fill:rgb(18.823529%,23.529412%,25.882353%);fill-opacity:1;" d="M 8.75 2.625 C 8.75 2.785156 8.621094 2.917969 8.457031 2.917969 C 8.296875 2.917969 8.167969 2.785156 8.167969 2.625 C 8.167969 2.464844 8.296875 2.332031 8.457031 2.332031 C 8.621094 2.332031 8.75 2.464844 8.75 2.625 Z M 8.75 2.625 "/>
<path style=" stroke:none;fill-rule:nonzero;fill:url(#linear0);" d="M 9.820312 10.21875 C 9.878906 10.128906 9.914062 10.023438 9.917969 9.917969 L 9.917969 5.25 L 4.851562 5.25 Z M 9.820312 10.21875 "/>
<path style=" stroke:none;fill-rule:nonzero;fill:url(#linear1);" d="M 2.042969 4.667969 C 1.558594 4.667969 1.167969 5.058594 1.167969 5.542969 L 1.167969 9.042969 C 1.167969 9.523438 1.558594 9.917969 2.042969 9.917969 C 2.523438 9.917969 2.917969 9.523438 2.917969 9.042969 L 2.917969 5.542969 C 2.917969 5.058594 2.523438 4.667969 2.042969 4.667969 Z M 11.957031 4.667969 C 11.476562 4.667969 11.082031 5.058594 11.082031 5.542969 L 11.082031 9.042969 C 11.082031 9.523438 11.476562 9.917969 11.957031 9.917969 C 12.441406 9.917969 12.832031 9.523438 12.832031 9.042969 L 12.832031 5.542969 C 12.832031 5.058594 12.441406 4.667969 11.957031 4.667969 Z M 3.515625 3.765625 C 3.507812 3.847656 3.535156 3.929688 3.589844 3.988281 C 3.644531 4.050781 3.722656 4.082031 3.804688 4.082031 L 10.191406 4.082031 C 10.273438 4.082031 10.355469 4.050781 10.410156 3.988281 C 10.464844 3.929688 10.492188 3.847656 10.484375 3.765625 C 10.394531 2.769531 9.878906 1.859375 9.066406 1.269531 L 9.582031 0.445312 C 9.664062 0.308594 9.625 0.128906 9.488281 0.0429688 C 9.351562 -0.0429688 9.167969 0 9.085938 0.136719 L 8.570312 0.964844 C 8.097656 0.730469 7.566406 0.582031 7 0.582031 C 6.433594 0.582031 5.902344 0.730469 5.429688 0.964844 L 4.914062 0.136719 C 4.828125 0 4.648438 -0.0429688 4.511719 0.0429688 C 4.375 0.128906 4.332031 0.308594 4.417969 0.445312 L 4.929688 1.269531 C 4.121094 1.859375 3.605469 2.769531 3.515625 3.765625 Z M 10.207031 4.667969 L 3.792969 4.667969 C 3.628906 4.667969 3.5 4.796875 3.5 4.957031 L 3.5 9.917969 C 3.5 10.558594 4.023438 11.082031 4.667969 11.082031 L 4.667969 13.125 C 4.667969 13.605469 5.058594 14 5.542969 14 C 6.023438 14 6.417969 13.605469 6.417969 13.125 L 6.417969 11.082031 L 7.582031 11.082031 L 7.582031 13.125 C 7.582031 13.605469 7.976562 14 8.457031 14 C 8.941406 14 9.332031 13.605469 9.332031 13.125 L 9.332031 11.082031 C 9.976562 11.082031 10.5 10.558594 10.5 9.917969 L 10.5 4.957031 C 10.5 4.796875 10.371094 4.667969 10.207031 4.667969 Z M 10.207031 4.667969 "/>
</g>
</svg>
