<?xml version="1.0" encoding="UTF-8"?>
<svg xmlns="http://www.w3.org/2000/svg" viewBox="0 3 24 18" id="docker" width="14px" height="14px">
    <path fill="#303c42"
          d="M23.77 11.079c-.069-.045-1.498-.947-2.849-.732-.327-1.369-1.583-2.222-1.645-2.263a.499.499 0 0 0-.638.069c-.1.104-.967 1.074-.722 3.282a.52.52 0 0 1-.126.411.447.447 0 0 1-.342.154H17V9.5a.5.5 0 0 0-.5-.5H14V3.5a.5.5 0 0 0-.5-.5h-3a.5.5 0 0 0-.5.5V6H4.5a.5.5 0 0 0-.5.5V9H1.5a.5.5 0 0 0-.5.5V12H.5a.5.5 0 0 0-.5.5C0 20.172 5.595 21 8 21c6.193 0 10.498-3.762 12.377-7.077 2.476-.395 3.509-2.094 3.554-2.168a.501.501 0 0 0-.161-.676z"></path>
    <path fill="#42a5f5" d="M14 10h2v2h-2zM11 10h2v2h-2zM8 10h2v2H8zM5 10h2v2H5zM11 7h2v2h-2zM11 4h2v2h-2zM8 7h2v2H8zM5 7h2v2H5zM2 10h2v2H2z"></path>
    <path fill="#42a5f5"
          d="M20.002 12.965a.5.5 0 0 0-.382.261C17.942 16.351 13.891 20 8 20c-2.546 0-6.772-.924-6.991-7h16.439c.422 0 .809-.173 1.089-.486.287-.321.424-.754.375-1.189-.113-1.02.053-1.687.214-2.069.375.361.874.985.874 1.744 0 .173.09.334.237.426a.503.503 0 0 0 .486.021c.595-.3 1.44-.048 2.015.212-.432.455-1.301 1.138-2.736 1.306z"></path>
    <path d="M20.002 12.465a.5.5 0 0 0-.382.261C17.942 15.851 13.891 19.5 8 19.5c-2.472 0-6.518-.886-6.951-6.5h-.04c.218 6.076 4.445 7 6.991 7 5.892 0 9.942-3.649 11.62-6.774a.5.5 0 0 1 .382-.261c1.436-.168 2.305-.851 2.736-1.306a4.894 4.894 0 0 0-.384-.15c-.492.399-1.254.827-2.352.956z"
          opacity=".1"></path>
    <circle cx="5.041" cy="16" r="1" fill="#303c42"></circle>
    <circle cx="5.469" cy="15.729" r=".323" fill="#fff"></circle>
    <linearGradient id="a" x1="1.556" x2="21.3" y1="8.195" y2="17.401" gradientUnits="userSpaceOnUse">
        <stop offset="0" stop-color="#fff" stop-opacity=".2"></stop>
        <stop offset="1" stop-color="#fff" stop-opacity="0"></stop>
    </linearGradient>
    <path fill="url(#a)"
          d="M23.77 11.079c-.069-.045-1.498-.947-2.849-.732-.327-1.369-1.583-2.222-1.645-2.263a.499.499 0 0 0-.638.069c-.1.104-.967 1.074-.722 3.282a.52.52 0 0 1-.126.411.447.447 0 0 1-.342.154H17V9.5a.5.5 0 0 0-.5-.5H14V3.5a.5.5 0 0 0-.5-.5h-3a.5.5 0 0 0-.5.5V6H4.5a.5.5 0 0 0-.5.5V9H1.5a.5.5 0 0 0-.5.5V12H.5a.5.5 0 0 0-.5.5C0 20.172 5.595 21 8 21c6.193 0 10.498-3.762 12.377-7.077 2.476-.395 3.509-2.094 3.554-2.168a.501.501 0 0 0-.161-.676z"></path>
</svg>
