<?xml version="1.0" encoding="UTF-8"?>
<svg xmlns="http://www.w3.org/2000/svg" xmlns:xlink="http://www.w3.org/1999/xlink" width="14px" height="14px" viewBox="0 0 14 14" version="1.1">
<defs>
<filter id="alpha" filterUnits="objectBoundingBox" x="0%" y="0%" width="100%" height="100%">
  <feColorMatrix type="matrix" in="SourceGraphic" values="0 0 0 0 1 0 0 0 0 1 0 0 0 0 1 0 0 0 1 0"/>
</filter>
<mask id="mask0">
  <g filter="url(#alpha)">
<rect x="0" y="0" width="14" height="14" style="fill:rgb(0%,0%,0%);fill-opacity:0.2;stroke:none;"/>
  </g>
</mask>
<clipPath id="clip1">
  <rect x="0" y="0" width="14" height="14"/>
</clipPath>
<g id="surface5" clip-path="url(#clip1)">
<path style=" stroke:none;fill-rule:nonzero;fill:rgb(100%,100%,100%);fill-opacity:1;" d="M 7.199219 3.414062 C 7.1875 1.851562 8.238281 0.53125 9.765625 0.207031 C 9.808594 0.199219 9.855469 0.199219 9.898438 0.210938 C 9.882812 0.152344 9.851562 0.101562 9.808594 0.0664062 C 9.738281 0.0078125 9.648438 -0.0117188 9.5625 0.0078125 C 8.039062 0.332031 6.984375 1.648438 7 3.210938 C 7 3.300781 7.039062 3.382812 7.109375 3.4375 C 7.140625 3.460938 7.179688 3.476562 7.21875 3.488281 C 7.210938 3.464844 7.199219 3.4375 7.199219 3.414062 Z M 7.199219 3.414062 "/>
</g>
<mask id="mask1">
  <g filter="url(#alpha)">
<rect x="0" y="0" width="14" height="14" style="fill:rgb(0%,0%,0%);fill-opacity:0.2;stroke:none;"/>
  </g>
</mask>
<clipPath id="clip2">
  <rect x="0" y="0" width="14" height="14"/>
</clipPath>
<g id="surface8" clip-path="url(#clip2)">
<path style=" stroke:none;fill-rule:nonzero;fill:rgb(100%,100%,100%);fill-opacity:1;" d="M 1.375 7.789062 C 1.375 3.820312 4.515625 3.707031 4.875 3.707031 C 5.441406 3.707031 5.847656 3.859375 6.238281 4.011719 C 6.621094 4.15625 6.980469 4.289062 7.5 4.289062 C 8.015625 4.289062 8.375 4.15625 8.757812 4.011719 C 9.148438 3.863281 9.554688 3.707031 10.125 3.707031 C 10.457031 3.707031 11.558594 3.785156 12.453125 4.621094 C 12.445312 4.613281 12.445312 4.605469 12.441406 4.597656 C 11.519531 3.578125 10.277344 3.5 9.917969 3.5 C 9.347656 3.5 8.941406 3.652344 8.550781 3.804688 C 8.167969 3.949219 7.8125 4.082031 7.292969 4.082031 C 6.773438 4.082031 6.414062 3.949219 6.035156 3.804688 C 5.640625 3.65625 5.234375 3.5 4.667969 3.5 C 4.308594 3.5 1.167969 3.613281 1.167969 7.582031 C 1.167969 9.949219 2.339844 12.265625 3.476562 13.355469 C 2.410156 12.195312 1.375 10.011719 1.375 7.789062 Z M 1.375 7.789062 "/>
</g>
<linearGradient id="linear0" gradientUnits="userSpaceOnUse" x1="3.365" y1="7.918" x2="22.332" y2="16.762" gradientTransform="matrix(0.583333,0,0,0.583333,0,0)">
<stop offset="0" style="stop-color:rgb(100%,100%,100%);stop-opacity:0.2;"/>
<stop offset="1" style="stop-color:rgb(100%,100%,100%);stop-opacity:0;"/>
</linearGradient>
</defs>
<g id="surface1">
<path style=" stroke:none;fill-rule:nonzero;fill:rgb(18.823529%,23.529412%,25.882353%);fill-opacity:1;" d="M 7.292969 3.5 C 7.3125 3.5 7.332031 3.5 7.351562 3.496094 C 8.878906 3.167969 9.929688 1.851562 9.917969 0.289062 C 9.917969 0.203125 9.875 0.117188 9.808594 0.0664062 C 9.738281 0.0078125 9.648438 -0.0117188 9.5625 0.0078125 C 8.039062 0.332031 6.984375 1.648438 7 3.210938 C 7 3.289062 7.03125 3.363281 7.085938 3.417969 C 7.140625 3.472656 7.214844 3.5 7.292969 3.5 Z M 7.292969 3.5 "/>
<use xlink:href="#surface5" mask="url(#mask0)"/>
<path style=" stroke:none;fill-rule:nonzero;fill:rgb(18.823529%,23.529412%,25.882353%);fill-opacity:1;" d="M 12.640625 9.644531 C 11.570312 9.253906 11.082031 8.152344 11.082031 7.292969 C 11.082031 6.367188 11.566406 5.527344 12.371094 5.046875 C 12.449219 5 12.5 4.925781 12.511719 4.839844 C 12.523438 4.75 12.496094 4.664062 12.441406 4.597656 C 11.519531 3.578125 10.277344 3.5 9.917969 3.5 C 9.347656 3.5 8.941406 3.652344 8.550781 3.804688 C 8.167969 3.949219 7.8125 4.082031 7.292969 4.082031 C 6.773438 4.082031 6.414062 3.949219 6.035156 3.804688 C 5.640625 3.65625 5.234375 3.5 4.667969 3.5 C 4.308594 3.5 1.167969 3.613281 1.167969 7.582031 C 1.167969 10.828125 3.382812 14 4.667969 14 C 5.453125 14 5.90625 13.816406 6.304688 13.652344 C 6.617188 13.527344 6.886719 13.417969 7.292969 13.417969 C 7.695312 13.417969 7.964844 13.527344 8.277344 13.652344 C 8.675781 13.816406 9.128906 14 9.917969 14 C 10.960938 14 12.191406 11.941406 12.820312 10.007812 C 12.867188 9.859375 12.789062 9.695312 12.640625 9.644531 Z M 12.640625 9.644531 "/>
<use xlink:href="#surface8" mask="url(#mask1)"/>
<path style=" stroke:none;fill-rule:nonzero;fill:url(#linear0);" d="M 7.292969 3.5 C 7.3125 3.5 7.332031 3.5 7.351562 3.496094 C 8.878906 3.167969 9.929688 1.851562 9.917969 0.289062 C 9.917969 0.203125 9.875 0.117188 9.808594 0.0664062 C 9.738281 0.0078125 9.648438 -0.0117188 9.5625 0.0078125 C 8.039062 0.332031 6.984375 1.648438 7 3.210938 C 7 3.289062 7.03125 3.363281 7.085938 3.417969 C 7.140625 3.472656 7.214844 3.5 7.292969 3.5 Z M 12.640625 9.644531 C 11.570312 9.253906 11.082031 8.152344 11.082031 7.292969 C 11.082031 6.367188 11.566406 5.527344 12.371094 5.046875 C 12.449219 5 12.5 4.925781 12.511719 4.839844 C 12.523438 4.75 12.496094 4.664062 12.441406 4.597656 C 11.519531 3.578125 10.277344 3.5 9.917969 3.5 C 9.347656 3.5 8.941406 3.652344 8.550781 3.804688 C 8.167969 3.949219 7.8125 4.082031 7.292969 4.082031 C 6.773438 4.082031 6.414062 3.949219 6.035156 3.804688 C 5.640625 3.65625 5.234375 3.5 4.667969 3.5 C 4.308594 3.5 1.167969 3.613281 1.167969 7.582031 C 1.167969 10.828125 3.382812 14 4.667969 14 C 5.453125 14 5.90625 13.816406 6.304688 13.652344 C 6.617188 13.527344 6.886719 13.417969 7.292969 13.417969 C 7.695312 13.417969 7.964844 13.527344 8.277344 13.652344 C 8.675781 13.816406 9.128906 14 9.917969 14 C 10.960938 14 12.191406 11.941406 12.820312 10.007812 C 12.867188 9.859375 12.789062 9.695312 12.640625 9.644531 Z M 12.640625 9.644531 "/>
</g>
</svg>
