<?xml version="1.0" encoding="UTF-8"?>
<svg xmlns="http://www.w3.org/2000/svg" xmlns:xlink="http://www.w3.org/1999/xlink" width="14px" height="14px" viewBox="0 0 14 14" version="1.1">
<defs>
<linearGradient id="linear0" gradientUnits="userSpaceOnUse" x1="10.376" y1="6.817" x2="17.154" y2="13.596" gradientTransform="matrix(0.583333,0,0,0.583333,0,0)">
<stop offset="0" style="stop-color:rgb(0%,0%,0%);stop-opacity:0.101961;"/>
<stop offset="1" style="stop-color:rgb(0%,0%,0%);stop-opacity:0;"/>
</linearGradient>
<linearGradient id="linear1" gradientUnits="userSpaceOnUse" x1="5.245" y1="10.06" x2="23.086" y2="18.379" gradientTransform="matrix(0.583333,0,0,0.583333,0,0)">
<stop offset="0" style="stop-color:rgb(100%,100%,100%);stop-opacity:0.2;"/>
<stop offset="1" style="stop-color:rgb(100%,100%,100%);stop-opacity:0;"/>
</linearGradient>
</defs>
<g id="surface1">
<path style=" stroke:none;fill-rule:nonzero;fill:rgb(18.823529%,23.529412%,25.882353%);fill-opacity:1;" d="M 12.207031 11.125 C 12.085938 11.046875 11.960938 10.964844 11.871094 10.875 C 11.820312 10.824219 11.84375 10.585938 11.855469 10.457031 C 11.882812 10.210938 11.90625 9.957031 11.742188 9.777344 C 11.71875 9.753906 11.683594 9.730469 11.648438 9.707031 C 11.65625 9.589844 11.667969 9.472656 11.667969 9.332031 C 11.667969 7.4375 10.792969 6.347656 10.09375 5.46875 C 9.667969 4.9375 9.332031 4.515625 9.332031 4.082031 L 9.332031 3.949219 C 9.339844 3.140625 9.347656 1.464844 8.457031 0.570312 C 8.082031 0.191406 7.589844 0 7 0 C 5.773438 0 4.957031 0.59375 4.957031 3.5 C 4.957031 4.300781 4.621094 4.953125 4.265625 5.648438 C 4.109375 5.953125 3.949219 6.265625 3.8125 6.597656 C 3.570312 7.199219 3.035156 8.582031 2.9375 9.390625 C 2.621094 9.523438 2.53125 9.875 2.480469 10.085938 L 2.433594 10.28125 C 2.390625 10.308594 2.226562 10.339844 2.117188 10.363281 C 1.761719 10.433594 1.167969 10.550781 1.167969 11.082031 C 1.167969 11.238281 1.191406 11.371094 1.214844 11.507812 C 1.261719 11.75 1.300781 11.980469 1.175781 12.46875 C 1.167969 12.492188 1.167969 12.515625 1.167969 12.542969 C 1.167969 13.242188 2.253906 13.332031 2.90625 13.386719 C 3.015625 13.398438 3.105469 13.402344 3.164062 13.414062 C 3.253906 13.425781 3.441406 13.515625 3.621094 13.597656 C 4.011719 13.777344 4.496094 14 4.957031 14 C 5.171875 14 5.351562 13.90625 5.488281 13.746094 L 5.492188 13.753906 C 5.621094 13.609375 6.480469 13.417969 7 13.417969 L 8.785156 13.417969 C 8.816406 13.527344 8.863281 13.640625 8.953125 13.738281 C 9.109375 13.914062 9.335938 14 9.625 14 C 10.382812 14 10.75 13.609375 11.105469 13.234375 C 11.164062 13.167969 11.226562 13.105469 11.289062 13.039062 C 11.4375 12.890625 11.726562 12.785156 11.980469 12.691406 C 12.402344 12.539062 12.832031 12.382812 12.832031 11.957031 C 12.832031 11.539062 12.484375 11.308594 12.207031 11.125 Z M 12.207031 11.125 "/>
<path style=" stroke:none;fill-rule:nonzero;fill:rgb(100%,100%,100%);fill-opacity:1;" d="M 4.351562 6.816406 C 4.480469 6.507812 4.632812 6.207031 4.785156 5.914062 C 4.984375 5.523438 5.1875 5.125 5.332031 4.695312 C 5.6875 5.011719 6.195312 5.25 6.417969 5.25 C 6.539062 5.25 7.511719 4.925781 8.066406 4.550781 C 9.1875 6.84375 9.324219 8.351562 9.332031 9.769531 C 9.050781 10.074219 8.90625 10.8125 8.828125 11.492188 C 7.972656 12.355469 6.253906 12.300781 5.5 12.179688 C 5.34375 11.878906 5.113281 11.621094 4.832031 11.425781 C 4.546875 11.226562 4.324219 10.761719 4.125 10.347656 C 3.9375 9.949219 3.765625 9.59375 3.515625 9.429688 C 3.597656 8.824219 4 7.683594 4.351562 6.816406 Z M 4.351562 6.816406 "/>
<path style=" stroke:none;fill-rule:nonzero;fill:rgb(96.470588%,53.72549%,9.803922%);fill-opacity:1;" d="M 4.957031 13.417969 C 4.621094 13.417969 4.203125 13.222656 3.867188 13.066406 C 3.617188 12.953125 3.421875 12.863281 3.253906 12.835938 C 3.15625 12.824219 3.054688 12.8125 2.957031 12.804688 C 2.085938 12.734375 1.820312 12.628906 1.757812 12.546875 C 1.894531 11.976562 1.835938 11.65625 1.789062 11.402344 C 1.769531 11.296875 1.75 11.199219 1.746094 11.089844 C 1.796875 11.019531 2.089844 10.960938 2.230469 10.933594 C 2.480469 10.886719 2.695312 10.84375 2.832031 10.707031 C 2.960938 10.578125 3.003906 10.398438 3.046875 10.226562 C 3.121094 9.917969 3.152344 9.917969 3.191406 9.914062 C 3.292969 9.960938 3.476562 10.34375 3.601562 10.601562 C 3.828125 11.078125 4.085938 11.617188 4.5 11.90625 C 5.085938 12.316406 5.210938 12.9375 5.113281 13.25 C 5.078125 13.359375 5.027344 13.417969 4.957031 13.417969 Z M 11.78125 12.144531 C 11.46875 12.257812 11.117188 12.386719 10.878906 12.625 C 10.808594 12.695312 10.742188 12.765625 10.679688 12.832031 C 10.359375 13.171875 10.128906 13.417969 9.625 13.417969 C 9.507812 13.417969 9.425781 13.390625 9.382812 13.347656 C 9.296875 13.25 9.316406 13.023438 9.328125 12.925781 C 9.332031 12.886719 9.332031 12.855469 9.332031 12.832031 C 9.335938 12.453125 9.421875 11.410156 9.546875 10.742188 C 9.570312 10.777344 9.59375 10.808594 9.625 10.839844 C 9.777344 11 9.988281 11.089844 10.207031 11.082031 L 10.3125 11.082031 L 10.410156 11.085938 C 10.703125 11.085938 11.015625 11.058594 11.265625 10.824219 C 11.28125 10.992188 11.328125 11.15625 11.460938 11.289062 C 11.589844 11.421875 11.75 11.523438 11.886719 11.613281 C 12.105469 11.757812 12.25 11.859375 12.257812 11.925781 C 12.210938 11.988281 11.953125 12.082031 11.78125 12.144531 Z M 6.679688 3.5 C 7.207031 3.613281 7.71875 3.839844 7.847656 4.011719 C 7.550781 4.222656 6.613281 4.644531 6.421875 4.667969 C 6.222656 4.644531 5.597656 4.238281 5.539062 4.105469 C 5.59375 3.9375 6.238281 3.515625 6.679688 3.5 Z M 6.679688 3.5 "/>
<path style=" stroke:none;fill-rule:nonzero;fill:rgb(18.823529%,23.529412%,25.882353%);fill-opacity:1;" d="M 7.757812 3.25 C 7.847656 3.164062 7.914062 3.015625 7.914062 2.839844 C 7.914062 2.570312 7.765625 2.347656 7.582031 2.347656 C 7.402344 2.347656 7.253906 2.570312 7.253906 2.839844 C 7.253906 2.921875 7.269531 3 7.292969 3.066406 C 7.441406 3.113281 7.601562 3.175781 7.757812 3.25 Z M 7.757812 3.25 "/>
<path style=" stroke:none;fill-rule:nonzero;fill:rgb(100%,100%,100%);fill-opacity:1;" d="M 7.582031 1.851562 C 7.308594 1.851562 7.089844 2.183594 7.089844 2.59375 C 7.089844 2.761719 7.132812 2.910156 7.195312 3.035156 C 7.238281 3.046875 7.308594 3.070312 7.292969 3.066406 C 7.269531 2.996094 7.253906 2.917969 7.253906 2.839844 C 7.253906 2.570312 7.402344 2.347656 7.582031 2.347656 C 7.765625 2.347656 7.914062 2.570312 7.914062 2.839844 C 7.914062 3.015625 7.847656 3.164062 7.757812 3.25 L 7.785156 3.265625 C 7.957031 3.152344 8.078125 2.894531 8.078125 2.59375 C 8.078125 2.183594 7.855469 1.851562 7.582031 1.851562 Z M 6.359375 2.964844 C 6.40625 2.855469 6.4375 2.730469 6.4375 2.59375 C 6.4375 2.183594 6.214844 1.851562 5.941406 1.851562 C 5.671875 1.851562 5.449219 2.183594 5.449219 2.59375 C 5.449219 2.871094 5.554688 3.101562 5.703125 3.226562 C 5.707031 3.21875 5.722656 3.214844 5.730469 3.210938 C 5.652344 3.105469 5.609375 2.976562 5.613281 2.839844 C 5.613281 2.570312 5.761719 2.347656 5.945312 2.347656 C 6.125 2.347656 6.273438 2.570312 6.273438 2.839844 C 6.273438 2.894531 6.261719 2.945312 6.253906 2.996094 C 6.277344 2.988281 6.277344 2.984375 6.359375 2.964844 Z M 6.359375 2.964844 "/>
<path style=" stroke:none;fill-rule:nonzero;fill:url(#linear0);" d="M 8.066406 4.550781 C 7.511719 4.925781 6.539062 5.25 6.417969 5.25 C 6.195312 5.25 5.6875 5.011719 5.332031 4.699219 L 9.285156 8.652344 C 9.191406 7.527344 8.902344 6.253906 8.066406 4.550781 Z M 8.066406 4.550781 "/>
<path style=" stroke:none;fill-rule:nonzero;fill:url(#linear1);" d="M 12.207031 11.125 C 12.085938 11.046875 11.960938 10.964844 11.871094 10.875 C 11.820312 10.824219 11.84375 10.585938 11.855469 10.457031 C 11.882812 10.210938 11.90625 9.957031 11.742188 9.777344 C 11.71875 9.753906 11.683594 9.730469 11.648438 9.707031 C 11.65625 9.589844 11.667969 9.472656 11.667969 9.332031 C 11.667969 7.4375 10.792969 6.347656 10.09375 5.46875 C 9.667969 4.9375 9.332031 4.515625 9.332031 4.082031 L 9.332031 3.949219 C 9.339844 3.140625 9.347656 1.464844 8.457031 0.570312 C 8.082031 0.191406 7.589844 0 7 0 C 5.773438 0 4.957031 0.59375 4.957031 3.5 C 4.957031 4.300781 4.621094 4.953125 4.265625 5.648438 C 4.109375 5.953125 3.949219 6.265625 3.8125 6.597656 C 3.570312 7.199219 3.035156 8.582031 2.9375 9.390625 C 2.621094 9.523438 2.53125 9.875 2.480469 10.085938 L 2.433594 10.28125 C 2.390625 10.308594 2.226562 10.339844 2.117188 10.363281 C 1.761719 10.433594 1.167969 10.550781 1.167969 11.082031 C 1.167969 11.238281 1.191406 11.371094 1.214844 11.507812 C 1.261719 11.75 1.300781 11.980469 1.175781 12.46875 C 1.167969 12.492188 1.167969 12.515625 1.167969 12.542969 C 1.167969 13.242188 2.253906 13.332031 2.90625 13.386719 C 3.015625 13.398438 3.105469 13.402344 3.164062 13.414062 C 3.253906 13.425781 3.441406 13.515625 3.621094 13.597656 C 4.011719 13.777344 4.496094 14 4.957031 14 C 5.171875 14 5.351562 13.90625 5.488281 13.746094 L 5.492188 13.753906 C 5.621094 13.609375 6.480469 13.417969 7 13.417969 L 8.785156 13.417969 C 8.816406 13.527344 8.863281 13.640625 8.953125 13.738281 C 9.109375 13.914062 9.335938 14 9.625 14 C 10.382812 14 10.75 13.609375 11.105469 13.234375 C 11.164062 13.167969 11.226562 13.105469 11.289062 13.039062 C 11.4375 12.890625 11.726562 12.785156 11.980469 12.691406 C 12.402344 12.539062 12.832031 12.382812 12.832031 11.957031 C 12.832031 11.539062 12.484375 11.308594 12.207031 11.125 Z M 12.207031 11.125 "/>
</g>
</svg>
