<?xml version="1.0" encoding="UTF-8"?>
<svg xmlns="http://www.w3.org/2000/svg" xmlns:xlink="http://www.w3.org/1999/xlink" width="14px" height="14px" viewBox="0 0 14 14" version="1.1">
<defs>
<filter id="alpha" filterUnits="objectBoundingBox" x="0%" y="0%" width="100%" height="100%">
  <feColorMatrix type="matrix" in="SourceGraphic" values="0 0 0 0 1 0 0 0 0 1 0 0 0 0 1 0 0 0 1 0"/>
</filter>
<mask id="mask0">
  <g filter="url(#alpha)">
<rect x="0" y="0" width="14" height="14" style="fill:rgb(0%,0%,0%);fill-opacity:0.101961;stroke:none;"/>
  </g>
</mask>
<clipPath id="clip1">
  <rect x="0" y="0" width="14" height="14"/>
</clipPath>
<g id="surface5" clip-path="url(#clip1)">
<path style=" stroke:none;fill-rule:nonzero;fill:rgb(0%,0%,0%);fill-opacity:1;" d="M 1.167969 11.40625 L 5.25 11.894531 L 5.25 11.367188 L 1.167969 10.957031 Z M 7.582031 12.171875 L 12.832031 12.796875 L 12.832031 12.128906 L 7.582031 11.601562 Z M 7.582031 12.171875 "/>
</g>
<mask id="mask1">
  <g filter="url(#alpha)">
<rect x="0" y="0" width="14" height="14" style="fill:rgb(0%,0%,0%);fill-opacity:0.2;stroke:none;"/>
  </g>
</mask>
<clipPath id="clip2">
  <rect x="0" y="0" width="14" height="14"/>
</clipPath>
<g id="surface8" clip-path="url(#clip2)">
<path style=" stroke:none;fill-rule:nonzero;fill:rgb(100%,100%,100%);fill-opacity:1;" d="M 1.167969 2.59375 L 5.25 2.105469 L 5.25 2.632812 L 1.167969 3.042969 Z M 7.582031 1.828125 L 12.832031 1.203125 L 12.832031 1.871094 L 7.582031 2.398438 Z M 7.582031 1.828125 "/>
</g>
<linearGradient id="linear0" gradientUnits="userSpaceOnUse" x1="0.337" y1="5.311" x2="25.578" y2="17.082" gradientTransform="matrix(0.583333,0,0,0.583333,0,0)">
<stop offset="0" style="stop-color:rgb(100%,100%,100%);stop-opacity:0.2;"/>
<stop offset="1" style="stop-color:rgb(100%,100%,100%);stop-opacity:0;"/>
</linearGradient>
</defs>
<g id="surface1">
<path style=" stroke:none;fill-rule:nonzero;fill:rgb(18.823529%,23.529412%,25.882353%);fill-opacity:1;" d="M 13.320312 0.65625 C 13.257812 0.601562 13.171875 0.574219 13.089844 0.585938 L 7.257812 1.277344 C 7.109375 1.296875 7 1.421875 7 1.570312 L 7 6.125 C 7 6.285156 7.128906 6.417969 7.292969 6.417969 L 13.125 6.417969 C 13.285156 6.417969 13.417969 6.285156 13.417969 6.125 L 13.417969 0.875 C 13.417969 0.792969 13.382812 0.710938 13.320312 0.65625 Z M 13.320312 0.65625 "/>
<path style=" stroke:none;fill-rule:nonzero;fill:rgb(48.627451%,70.196078%,25.882353%);fill-opacity:1;" d="M 12.832031 5.832031 L 7.582031 5.832031 L 7.582031 1.828125 L 12.832031 1.203125 Z M 12.832031 5.832031 "/>
<path style=" stroke:none;fill-rule:nonzero;fill:rgb(18.823529%,23.529412%,25.882353%);fill-opacity:1;" d="M 5.507812 1.488281 L 0.839844 2.042969 C 0.695312 2.0625 0.582031 2.183594 0.582031 2.332031 L 0.582031 6.125 C 0.582031 6.285156 0.714844 6.417969 0.875 6.417969 L 5.542969 6.417969 C 5.703125 6.417969 5.832031 6.285156 5.832031 6.125 L 5.832031 1.777344 C 5.832031 1.695312 5.796875 1.613281 5.734375 1.558594 C 5.671875 1.503906 5.589844 1.476562 5.507812 1.488281 Z M 5.507812 1.488281 "/>
<path style=" stroke:none;fill-rule:nonzero;fill:rgb(90.196078%,29.019608%,9.803922%);fill-opacity:1;" d="M 5.25 5.832031 L 1.167969 5.832031 L 1.167969 2.59375 L 5.25 2.105469 Z M 5.25 5.832031 "/>
<path style=" stroke:none;fill-rule:nonzero;fill:rgb(18.823529%,23.529412%,25.882353%);fill-opacity:1;" d="M 5.542969 7.582031 L 0.875 7.582031 C 0.714844 7.582031 0.582031 7.714844 0.582031 7.875 L 0.582031 11.667969 C 0.582031 11.816406 0.695312 11.9375 0.839844 11.957031 L 5.507812 12.511719 L 5.542969 12.511719 C 5.617188 12.515625 5.695312 12.484375 5.75 12.429688 C 5.804688 12.375 5.832031 12.300781 5.832031 12.222656 L 5.832031 7.875 C 5.832031 7.714844 5.703125 7.582031 5.542969 7.582031 Z M 5.542969 7.582031 "/>
<path style=" stroke:none;fill-rule:nonzero;fill:rgb(1.176471%,60.784314%,89.803922%);fill-opacity:1;" d="M 5.25 11.894531 L 1.167969 11.40625 L 1.167969 8.167969 L 5.25 8.167969 Z M 5.25 11.894531 "/>
<path style=" stroke:none;fill-rule:nonzero;fill:rgb(18.823529%,23.529412%,25.882353%);fill-opacity:1;" d="M 13.125 7.582031 L 7.292969 7.582031 C 7.128906 7.582031 7 7.714844 7 7.875 L 7 12.429688 C 7 12.578125 7.109375 12.703125 7.257812 12.722656 L 13.089844 13.414062 C 13.171875 13.425781 13.257812 13.398438 13.320312 13.34375 C 13.382812 13.289062 13.417969 13.207031 13.417969 13.125 L 13.417969 7.875 C 13.417969 7.714844 13.285156 7.582031 13.125 7.582031 Z M 13.125 7.582031 "/>
<path style=" stroke:none;fill-rule:nonzero;fill:rgb(98.431373%,75.294118%,17.647059%);fill-opacity:1;" d="M 12.832031 12.796875 L 7.582031 12.171875 L 7.582031 8.167969 L 12.832031 8.167969 Z M 12.832031 12.796875 "/>
<use xlink:href="#surface5" mask="url(#mask0)"/>
<use xlink:href="#surface8" mask="url(#mask1)"/>
<path style=" stroke:none;fill-rule:nonzero;fill:url(#linear0);" d="M 13.320312 0.65625 C 13.257812 0.601562 13.171875 0.574219 13.089844 0.585938 L 7.257812 1.277344 C 7.109375 1.296875 7 1.421875 7 1.570312 L 7 6.125 C 7 6.285156 7.128906 6.417969 7.292969 6.417969 L 13.125 6.417969 C 13.285156 6.417969 13.417969 6.285156 13.417969 6.125 L 13.417969 0.875 C 13.417969 0.792969 13.382812 0.710938 13.320312 0.65625 Z M 5.507812 1.488281 L 0.839844 2.042969 C 0.695312 2.0625 0.582031 2.183594 0.582031 2.332031 L 0.582031 6.125 C 0.582031 6.285156 0.714844 6.417969 0.875 6.417969 L 5.542969 6.417969 C 5.703125 6.417969 5.832031 6.285156 5.832031 6.125 L 5.832031 1.777344 C 5.832031 1.695312 5.796875 1.613281 5.734375 1.558594 C 5.671875 1.503906 5.589844 1.476562 5.507812 1.488281 Z M 5.542969 7.582031 L 0.875 7.582031 C 0.714844 7.582031 0.582031 7.714844 0.582031 7.875 L 0.582031 11.667969 C 0.582031 11.816406 0.695312 11.9375 0.839844 11.957031 L 5.507812 12.511719 L 5.542969 12.511719 C 5.617188 12.515625 5.695312 12.484375 5.75 12.429688 C 5.804688 12.375 5.832031 12.300781 5.832031 12.222656 L 5.832031 7.875 C 5.832031 7.714844 5.703125 7.582031 5.542969 7.582031 Z M 13.125 7.582031 L 7.292969 7.582031 C 7.128906 7.582031 7 7.714844 7 7.875 L 7 12.429688 C 7 12.578125 7.109375 12.703125 7.257812 12.722656 L 13.089844 13.414062 C 13.171875 13.425781 13.257812 13.398438 13.320312 13.34375 C 13.382812 13.289062 13.417969 13.207031 13.417969 13.125 L 13.417969 7.875 C 13.417969 7.714844 13.285156 7.582031 13.125 7.582031 Z M 13.125 7.582031 "/>
</g>
</svg>
