<?xml version="1.0" encoding="UTF-8"?>
<svg xmlns="http://www.w3.org/2000/svg" xmlns:xlink="http://www.w3.org/1999/xlink" width="14px" height="14px" viewBox="0 0 14 14" version="1.1">
<defs>
<filter id="alpha" filterUnits="objectBoundingBox" x="0%" y="0%" width="100%" height="100%">
  <feColorMatrix type="matrix" in="SourceGraphic" values="0 0 0 0 1 0 0 0 0 1 0 0 0 0 1 0 0 0 1 0"/>
</filter>
<mask id="mask0">
  <g filter="url(#alpha)">
<rect x="0" y="0" width="14" height="14" style="fill:rgb(0%,0%,0%);fill-opacity:0.101961;stroke:none;"/>
  </g>
</mask>
<clipPath id="clip1">
  <rect x="0" y="0" width="14" height="14"/>
</clipPath>
<g id="surface5" clip-path="url(#clip1)">
<path style=" stroke:none;fill-rule:nonzero;fill:rgb(0%,0%,0%);fill-opacity:1;" d="M 2.757812 8.882812 C 2.757812 7.425781 3.273438 6.4375 4.125 5.648438 C 4.183594 5.292969 4.289062 4.949219 4.4375 4.625 C 3.144531 5.515625 2.332031 6.613281 2.332031 8.457031 C 2.332031 9.785156 2.953125 10.988281 3.957031 11.878906 C 3.207031 11.046875 2.757812 10.011719 2.757812 8.882812 Z M 2.757812 8.882812 "/>
</g>
<mask id="mask1">
  <g filter="url(#alpha)">
<rect x="0" y="0" width="14" height="14" style="fill:rgb(0%,0%,0%);fill-opacity:0.2;stroke:none;"/>
  </g>
</mask>
<clipPath id="clip2">
  <rect x="0" y="0" width="14" height="14"/>
</clipPath>
<g id="surface8" clip-path="url(#clip2)">
<path style=" stroke:none;fill-rule:nonzero;fill:rgb(100%,100%,100%);fill-opacity:1;" d="M 7.425781 1.007812 C 8.910156 1.003906 10.339844 1.550781 11.441406 2.542969 C 10.371094 1.347656 8.777344 0.582031 7 0.582031 C 4.25 0.582031 1.945312 2.3125 1.3125 4.726562 C 1.59375 4.480469 1.882812 4.25 2.183594 4.03125 C 3.140625 2.222656 5.125 1.007812 7.425781 1.007812 Z M 7.425781 1.007812 "/>
</g>
<linearGradient id="linear0" gradientUnits="userSpaceOnUse" x1="1.62" y1="6.748" x2="23.402" y2="16.905" gradientTransform="matrix(0.583333,0,0,0.583333,0,0)">
<stop offset="0" style="stop-color:rgb(100%,100%,100%);stop-opacity:0.2;"/>
<stop offset="1" style="stop-color:rgb(100%,100%,100%);stop-opacity:0;"/>
</linearGradient>
</defs>
<g id="surface1">
<path style=" stroke:none;fill-rule:nonzero;fill:rgb(18.823529%,23.529412%,25.882353%);fill-opacity:1;" d="M 7 0 C 3.636719 0 0.878906 2.371094 0.585938 5.515625 C 0.574219 5.636719 0.640625 5.753906 0.75 5.804688 C 0.863281 5.855469 0.992188 5.835938 1.082031 5.75 C 2.984375 3.84375 4.921875 2.917969 7 2.917969 C 8.585938 2.917969 9.273438 3.765625 9.328125 5.832031 L 4.683594 5.832031 C 4.75 5.273438 5.007812 4.683594 5.492188 3.953125 C 5.566406 3.839844 5.554688 3.691406 5.464844 3.59375 C 5.375 3.496094 5.226562 3.46875 5.109375 3.535156 C 3.363281 4.496094 1.75 5.757812 1.75 8.457031 C 1.75 11.515625 4.628906 14 8.167969 14 C 9.640625 14 11 13.671875 12.101562 13.054688 C 12.191406 13.003906 12.25 12.90625 12.25 12.800781 L 12.25 10.207031 C 12.25 10.097656 12.1875 9.996094 12.089844 9.949219 C 11.988281 9.898438 11.871094 9.910156 11.785156 9.976562 C 10.792969 10.71875 9.800781 11.082031 8.75 11.082031 C 6.195312 11.082031 4.863281 10.320312 4.6875 8.75 L 13.125 8.75 C 13.285156 8.75 13.417969 8.621094 13.417969 8.457031 L 13.417969 6.125 C 13.417969 2.746094 10.539062 0 7 0 Z M 7 0 "/>
<path style=" stroke:none;fill-rule:nonzero;fill:rgb(8.235294%,39.607843%,75.294118%);fill-opacity:1;" d="M 12.832031 8.167969 L 4.375 8.167969 C 4.296875 8.167969 4.222656 8.199219 4.167969 8.253906 C 4.113281 8.308594 4.082031 8.386719 4.082031 8.464844 C 4.128906 10.589844 5.699219 11.667969 8.75 11.667969 C 9.75 11.667969 10.726562 11.363281 11.667969 10.765625 L 11.667969 12.628906 C 10.679688 13.144531 9.476562 13.417969 8.167969 13.417969 C 4.949219 13.417969 2.332031 11.191406 2.332031 8.457031 C 2.332031 6.613281 3.144531 5.515625 4.4375 4.625 C 4.195312 5.15625 4.082031 5.640625 4.082031 6.125 C 4.082031 6.285156 4.214844 6.417969 4.375 6.417969 L 9.625 6.417969 C 9.785156 6.417969 9.917969 6.285156 9.917969 6.125 C 9.917969 4.359375 9.585938 2.332031 7 2.332031 C 4.996094 2.332031 3.128906 3.117188 1.3125 4.726562 C 1.945312 2.3125 4.25 0.582031 7 0.582031 C 10.214844 0.582031 12.832031 3.070312 12.832031 6.125 Z M 12.832031 8.167969 "/>
<use xlink:href="#surface5" mask="url(#mask0)"/>
<use xlink:href="#surface8" mask="url(#mask1)"/>
<path style=" stroke:none;fill-rule:nonzero;fill:url(#linear0);" d="M 7 0 C 3.636719 0 0.878906 2.371094 0.585938 5.515625 C 0.574219 5.636719 0.640625 5.753906 0.75 5.804688 C 0.863281 5.855469 0.992188 5.835938 1.082031 5.75 C 2.984375 3.84375 4.921875 2.917969 7 2.917969 C 8.585938 2.917969 9.273438 3.765625 9.328125 5.832031 L 4.683594 5.832031 C 4.75 5.273438 5.007812 4.683594 5.492188 3.953125 C 5.566406 3.839844 5.554688 3.691406 5.464844 3.59375 C 5.375 3.496094 5.226562 3.46875 5.109375 3.535156 C 3.363281 4.496094 1.75 5.757812 1.75 8.457031 C 1.75 11.515625 4.628906 14 8.167969 14 C 9.640625 14 11 13.671875 12.101562 13.054688 C 12.191406 13.003906 12.25 12.90625 12.25 12.800781 L 12.25 10.207031 C 12.25 10.097656 12.1875 9.996094 12.089844 9.949219 C 11.988281 9.898438 11.871094 9.910156 11.785156 9.976562 C 10.792969 10.71875 9.800781 11.082031 8.75 11.082031 C 6.195312 11.082031 4.863281 10.320312 4.6875 8.75 L 13.125 8.75 C 13.285156 8.75 13.417969 8.621094 13.417969 8.457031 L 13.417969 6.125 C 13.417969 2.746094 10.539062 0 7 0 Z M 7 0 "/>
</g>
</svg>
