<?xml version="1.0" encoding="UTF-8"?>
<svg xmlns="http://www.w3.org/2000/svg" xmlns:xlink="http://www.w3.org/1999/xlink" width="14px" height="14px" viewBox="0 0 14 14" version="1.1">
<defs>
<filter id="alpha" filterUnits="objectBoundingBox" x="0%" y="0%" width="100%" height="100%">
  <feColorMatrix type="matrix" in="SourceGraphic" values="0 0 0 0 1 0 0 0 0 1 0 0 0 0 1 0 0 0 1 0"/>
</filter>
<mask id="mask0">
  <g filter="url(#alpha)">
<rect x="0" y="0" width="14" height="14" style="fill:rgb(0%,0%,0%);fill-opacity:0.101961;stroke:none;"/>
  </g>
</mask>
<clipPath id="clip1">
  <rect x="0" y="0" width="14" height="14"/>
</clipPath>
<g id="surface5" clip-path="url(#clip1)">
<path style=" stroke:none;fill-rule:nonzero;fill:rgb(0%,0%,0%);fill-opacity:1;" d="M 4.40625 4.910156 C 4.285156 4.992188 4.242188 5.152344 4.308594 5.285156 C 4.328125 5.320312 4.339844 5.355469 4.347656 5.390625 C 4.226562 5.398438 4.105469 5.429688 3.992188 5.480469 C 3.550781 5.660156 3.109375 6.082031 3.109375 6.609375 C 3.109375 7.066406 3.359375 7.523438 3.804688 7.859375 C 3.609375 7.59375 3.5 7.296875 3.5 7 C 3.5 6.46875 3.941406 6.050781 4.378906 5.867188 C 4.507812 5.816406 4.628906 5.785156 4.738281 5.777344 C 4.726562 5.742188 4.714844 5.707031 4.699219 5.675781 C 4.632812 5.542969 4.671875 5.382812 4.796875 5.300781 L 5.765625 4.65625 C 5.511719 4.640625 5.265625 4.585938 5.03125 4.496094 Z M 11.335938 2.28125 C 12.421875 3.460938 13.027344 5.007812 13.027344 6.609375 C 13.027344 10.148438 10.148438 13.027344 6.613281 13.027344 C 5.003906 13.027344 3.460938 12.421875 2.28125 11.332031 C 3.453125 12.609375 5.132812 13.417969 7 13.417969 C 10.539062 13.417969 13.417969 10.539062 13.417969 7 C 13.417969 5.171875 12.632812 3.476562 11.335938 2.28125 Z M 11.335938 2.28125 "/>
</g>
<linearGradient id="linear0" gradientUnits="userSpaceOnUse" x1="4.428" y1="4.041" x2="16.081" y2="15.694" gradientTransform="matrix(0.583333,0,0,0.583333,0,0)">
<stop offset="0" style="stop-color:rgb(0%,0%,0%);stop-opacity:0.101961;"/>
<stop offset="1" style="stop-color:rgb(0%,0%,0%);stop-opacity:0;"/>
</linearGradient>
<linearGradient id="linear1" gradientUnits="userSpaceOnUse" x1="-0.082" y1="6.368" x2="22.875" y2="17.073" gradientTransform="matrix(0.583333,0,0,0.583333,0,0)">
<stop offset="0" style="stop-color:rgb(100%,100%,100%);stop-opacity:0.2;"/>
<stop offset="1" style="stop-color:rgb(100%,100%,100%);stop-opacity:0;"/>
</linearGradient>
</defs>
<g id="surface1">
<path style=" stroke:none;fill-rule:nonzero;fill:rgb(18.823529%,23.529412%,25.882353%);fill-opacity:1;" d="M 9.792969 0.582031 C 8.914062 0.195312 7.960938 -0.00390625 7 0 C 5.085938 0 3.257812 0.789062 1.941406 2.175781 C 1.828125 1.894531 1.75 1.621094 1.75 1.457031 C 1.75 1.339844 1.675781 1.234375 1.566406 1.1875 C 1.457031 1.144531 1.332031 1.171875 1.25 1.257812 C 0.480469 2.050781 0.449219 3.0625 0.8125 3.730469 C 0.28125 4.738281 0 5.859375 0 7 C 0 10.859375 3.140625 14 7 14 C 10.859375 14 14 10.859375 14 7 C 14 4.214844 12.347656 1.695312 9.792969 0.582031 Z M 9.792969 0.582031 "/>
<path style=" stroke:none;fill-rule:nonzero;fill:rgb(16.078431%,71.372549%,96.470588%);fill-opacity:1;" d="M 7 0.582031 C 7.878906 0.582031 8.730469 0.761719 9.53125 1.105469 C 10.648438 1.894531 11.332031 4.007812 11.375 5.675781 C 11.109375 5.171875 10.734375 4.734375 10.277344 4.390625 C 10.160156 4.304688 10 4.316406 9.898438 4.417969 C 9.796875 4.519531 9.78125 4.683594 9.867188 4.800781 C 10.28125 5.351562 10.5 6.019531 10.5 6.707031 C 10.5 8.476562 9.058594 9.917969 7.292969 9.917969 C 6.878906 9.917969 6.597656 9.871094 6.335938 9.765625 C 6.6875 9.632812 6.996094 9.433594 7.28125 9.25 C 7.683594 8.992188 8.0625 8.75 8.457031 8.75 C 8.546875 8.75 8.632812 8.707031 8.6875 8.636719 C 8.742188 8.566406 8.761719 8.476562 8.742188 8.386719 C 8.671875 8.109375 8.339844 7.582031 7.582031 7.582031 C 7.164062 7.582031 6.980469 7.75 6.832031 7.882812 C 6.671875 8.019531 6.511719 8.167969 5.832031 8.167969 C 4.640625 8.167969 4.082031 7.472656 4.082031 7 C 4.082031 6.859375 4.175781 6.699219 4.339844 6.566406 C 4.542969 6.398438 4.75 6.351562 4.75 6.332031 C 4.867188 6.445312 5.050781 6.445312 5.164062 6.332031 C 5.367188 6.128906 5.355469 5.855469 5.308594 5.660156 L 6.871094 4.617188 C 6.976562 4.546875 7.027344 4.414062 6.988281 4.289062 C 6.949219 4.167969 6.835938 4.082031 6.707031 4.082031 L 6.125 4.082031 C 5.476562 4.082031 5.050781 3.957031 4.960938 3.738281 C 4.828125 3.414062 5.265625 2.730469 5.75 2.25 C 5.832031 2.164062 5.855469 2.039062 5.8125 1.929688 C 5.765625 1.820312 5.660156 1.75 5.542969 1.75 C 4.59375 1.75 3.96875 2.496094 3.667969 2.890625 C 3.285156 2.84375 2.640625 2.867188 2.347656 2.910156 C 2.296875 2.855469 2.253906 2.796875 2.214844 2.734375 C 3.429688 1.367188 5.171875 0.582031 7 0.582031 Z M 7 0.582031 "/>
<path style=" stroke:none;fill-rule:nonzero;fill:rgb(96.078431%,48.627451%,0%);fill-opacity:1;" d="M 7 13.417969 C 3.460938 13.417969 0.582031 10.539062 0.582031 7 C 0.582031 5.90625 0.867188 4.824219 1.402344 3.863281 C 1.457031 3.765625 1.453125 3.644531 1.386719 3.554688 C 1.1875 3.269531 1.058594 2.726562 1.3125 2.171875 C 1.394531 2.40625 1.496094 2.640625 1.597656 2.832031 C 1.785156 3.183594 2.046875 3.574219 2.398438 3.492188 C 2.640625 3.4375 3.527344 3.433594 3.664062 3.472656 C 3.789062 3.53125 3.9375 3.496094 4.023438 3.386719 L 4.078125 3.316406 C 4.203125 3.148438 4.402344 2.886719 4.664062 2.675781 C 4.421875 3.078125 4.25 3.550781 4.421875 3.960938 C 4.589844 4.371094 5.03125 4.601562 5.765625 4.65625 L 4.796875 5.300781 C 4.671875 5.382812 4.632812 5.542969 4.699219 5.675781 C 4.714844 5.703125 4.726562 5.742188 4.738281 5.777344 C 4.613281 5.789062 4.492188 5.816406 4.378906 5.867188 C 3.941406 6.050781 3.5 6.46875 3.5 7 C 3.5 7.859375 4.371094 8.75 5.832031 8.75 C 6.664062 8.75 6.964844 8.546875 7.21875 8.316406 C 7.335938 8.210938 7.386719 8.167969 7.582031 8.167969 C 7.738281 8.167969 7.855469 8.199219 7.941406 8.25 C 7.59375 8.359375 7.277344 8.5625 6.964844 8.761719 C 6.507812 9.054688 6.074219 9.332031 5.542969 9.332031 C 5.417969 9.332031 5.304688 9.414062 5.265625 9.535156 C 5.226562 9.652344 5.265625 9.785156 5.367188 9.859375 C 6.03125 10.351562 6.480469 10.5 7.292969 10.5 C 8.335938 10.5 9.335938 10.066406 10.050781 9.304688 C 10.769531 8.542969 11.136719 7.519531 11.078125 6.476562 C 11.144531 6.695312 11.191406 6.921875 11.210938 7.15625 C 11.226562 7.296875 11.339844 7.40625 11.480469 7.417969 C 11.621094 7.433594 11.753906 7.339844 11.785156 7.203125 C 11.898438 6.757812 11.957031 6.296875 11.957031 5.832031 C 11.957031 4.621094 11.628906 3.128906 11.007812 1.992188 C 12.53125 3.207031 13.417969 5.050781 13.417969 7 C 13.417969 10.539062 10.539062 13.417969 7 13.417969 Z M 7 13.417969 "/>
<use xlink:href="#surface5" mask="url(#mask0)"/>
<path style=" stroke:none;fill-rule:nonzero;fill:url(#linear0);" d="M 2.214844 2.734375 C 2.277344 2.828125 2.320312 2.882812 2.347656 2.910156 C 2.53125 2.882812 2.847656 2.863281 3.15625 2.867188 L 2.621094 2.328125 C 2.480469 2.457031 2.34375 2.589844 2.214844 2.734375 Z M 10.492188 6.609375 L 5.8125 1.929688 C 5.855469 2.039062 5.832031 2.164062 5.75 2.25 C 5.265625 2.730469 4.828125 3.414062 4.960938 3.738281 C 5.050781 3.957031 5.476562 4.082031 6.125 4.082031 L 6.707031 4.082031 C 6.835938 4.082031 6.949219 4.167969 6.988281 4.289062 C 7.023438 4.414062 6.976562 4.546875 6.871094 4.617188 L 5.308594 5.660156 C 5.355469 5.855469 5.371094 6.125 5.164062 6.332031 C 5.050781 6.445312 4.867188 6.445312 4.753906 6.332031 C 4.75 6.351562 4.542969 6.398438 4.339844 6.566406 C 4.175781 6.699219 4.082031 6.859375 4.082031 7 C 4.082031 7.472656 4.640625 8.167969 5.832031 8.167969 C 6.511719 8.167969 6.671875 8.019531 6.832031 7.882812 C 6.980469 7.75 7.164062 7.582031 7.582031 7.582031 C 8.339844 7.582031 8.671875 8.109375 8.742188 8.386719 C 8.761719 8.476562 8.742188 8.566406 8.6875 8.636719 C 8.632812 8.707031 8.546875 8.75 8.457031 8.75 C 8.0625 8.75 7.683594 8.992188 7.28125 9.25 C 6.996094 9.433594 6.6875 9.632812 6.335938 9.765625 C 6.597656 9.871094 6.878906 9.917969 7.292969 9.917969 C 9.058594 9.917969 10.5 8.476562 10.5 6.707031 C 10.5 6.675781 10.492188 6.644531 10.492188 6.609375 Z M 10.492188 6.609375 "/>
<path style=" stroke:none;fill-rule:nonzero;fill:url(#linear1);" d="M 9.792969 0.582031 C 8.914062 0.195312 7.960938 -0.00390625 7 0 C 5.085938 0 3.257812 0.789062 1.941406 2.175781 C 1.828125 1.894531 1.75 1.621094 1.75 1.457031 C 1.75 1.339844 1.675781 1.234375 1.566406 1.1875 C 1.457031 1.144531 1.332031 1.171875 1.25 1.257812 C 0.480469 2.050781 0.449219 3.0625 0.8125 3.730469 C 0.28125 4.738281 0 5.859375 0 7 C 0 10.859375 3.140625 14 7 14 C 10.859375 14 14 10.859375 14 7 C 14 4.214844 12.347656 1.695312 9.792969 0.582031 Z M 9.792969 0.582031 "/>
</g>
</svg>
