<?xml version="1.0" encoding="UTF-8"?>
<svg xmlns="http://www.w3.org/2000/svg" xmlns:xlink="http://www.w3.org/1999/xlink" width="14px" height="14px" viewBox="0 0 14 14" version="1.1">
<defs>
<linearGradient id="linear0" gradientUnits="userSpaceOnUse" x1="9.222" y1="9.217" x2="22.536" y2="15.425" gradientTransform="matrix(0.583333,0,0,0.583333,0,0)">
<stop offset="0" style="stop-color:rgb(100%,100%,100%);stop-opacity:0;"/>
<stop offset="1" style="stop-color:rgb(100%,100%,100%);stop-opacity:0.2;"/>
</linearGradient>
<linearGradient id="linear1" gradientUnits="userSpaceOnUse" x1="1.125" y1="6.929" x2="22.875" y2="17.071" gradientTransform="matrix(0.583333,0,0,0.583333,0,0)">
<stop offset="0" style="stop-color:rgb(100%,100%,100%);stop-opacity:0.2;"/>
<stop offset="1" style="stop-color:rgb(100%,100%,100%);stop-opacity:0;"/>
</linearGradient>
</defs>
<g id="surface1">
<path style=" stroke:none;fill-rule:nonzero;fill:rgb(18.823529%,23.529412%,25.882353%);fill-opacity:1;" d="M 7 0 C 3.140625 0 0 3.140625 0 7 C 0 10.859375 3.140625 14 7 14 C 10.859375 14 14 10.859375 14 7 C 14 3.140625 10.859375 0 7 0 Z M 8.867188 11.046875 C 8.378906 11.550781 7.703125 11.835938 7 11.832031 C 6.308594 11.835938 5.648438 11.5625 5.164062 11.070312 C 4.136719 10.019531 3.5 8.582031 3.5 7 C 3.5 5.417969 4.136719 3.980469 5.164062 2.929688 C 5.648438 2.4375 6.308594 2.164062 7 2.167969 C 7.714844 2.167969 8.378906 2.445312 8.867188 2.953125 C 9.921875 4.046875 10.5 5.484375 10.5 7 C 10.5 8.515625 9.921875 9.953125 8.867188 11.046875 Z M 8.867188 11.046875 "/>
<path style=" stroke:none;fill-rule:nonzero;fill:rgb(95.686275%,26.27451%,21.176471%);fill-opacity:1;" d="M 0.582031 7 C 0.582031 3.460938 3.460938 0.582031 7 0.582031 C 7.398438 0.582031 7.789062 0.625 8.167969 0.695312 C 6.867188 0.933594 5.671875 1.574219 4.75 2.519531 C 4.738281 2.53125 4.722656 2.539062 4.710938 2.550781 L 4.71875 2.554688 C 2.316406 5.03125 2.316406 8.96875 4.71875 11.445312 L 4.710938 11.449219 C 4.722656 11.460938 4.738281 11.46875 4.75 11.480469 C 5.671875 12.425781 6.867188 13.0625 8.167969 13.304688 C 7.789062 13.375 7.398438 13.417969 7 13.417969 C 3.460938 13.417969 0.582031 10.539062 0.582031 7 Z M 0.582031 7 "/>
<path style=" stroke:none;fill-rule:nonzero;fill:rgb(95.686275%,26.27451%,21.176471%);fill-opacity:1;" d="M 9.695312 12.816406 C 9.574219 12.824219 9.457031 12.832031 9.332031 12.832031 C 8.582031 12.832031 7.835938 12.6875 7.140625 12.402344 C 7.960938 12.367188 8.71875 12.039062 9.285156 11.449219 C 10.445312 10.25 11.082031 8.667969 11.082031 7 C 11.082031 5.332031 10.445312 3.75 9.289062 2.550781 C 8.71875 1.960938 7.960938 1.632812 7.140625 1.597656 C 7.835938 1.3125 8.582031 1.167969 9.332031 1.167969 C 9.453125 1.167969 9.574219 1.175781 9.695312 1.183594 C 11.886719 2.203125 13.417969 4.425781 13.417969 7 C 13.417969 9.574219 11.886719 11.792969 9.695312 12.816406 Z M 9.695312 12.816406 "/>
<path style=" stroke:none;fill-rule:nonzero;fill:url(#linear0);" d="M 9.695312 12.816406 C 9.574219 12.824219 9.457031 12.832031 9.332031 12.832031 C 8.582031 12.832031 7.835938 12.6875 7.140625 12.402344 C 7.960938 12.367188 8.71875 12.039062 9.285156 11.449219 C 10.445312 10.25 11.082031 8.667969 11.082031 7 C 11.082031 5.332031 10.445312 3.75 9.289062 2.550781 C 8.71875 1.960938 7.960938 1.632812 7.140625 1.597656 C 7.835938 1.3125 8.582031 1.167969 9.332031 1.167969 C 9.453125 1.167969 9.574219 1.175781 9.695312 1.183594 C 11.886719 2.203125 13.417969 4.425781 13.417969 7 C 13.417969 9.574219 11.886719 11.792969 9.695312 12.816406 Z M 9.695312 12.816406 "/>
<path style=" stroke:none;fill-rule:nonzero;fill:url(#linear1);" d="M 7 0 C 3.140625 0 0 3.140625 0 7 C 0 10.859375 3.140625 14 7 14 C 10.859375 14 14 10.859375 14 7 C 14 3.140625 10.859375 0 7 0 Z M 8.867188 11.046875 C 8.378906 11.550781 7.703125 11.835938 7 11.832031 C 6.308594 11.835938 5.648438 11.5625 5.164062 11.070312 C 4.136719 10.019531 3.5 8.582031 3.5 7 C 3.5 5.417969 4.136719 3.980469 5.164062 2.929688 C 5.648438 2.4375 6.308594 2.164062 7 2.167969 C 7.714844 2.167969 8.378906 2.445312 8.867188 2.953125 C 9.921875 4.046875 10.5 5.484375 10.5 7 C 10.5 8.515625 9.921875 9.953125 8.867188 11.046875 Z M 8.867188 11.046875 "/>
</g>
</svg>
