<?xml version="1.0" encoding="UTF-8"?>
<svg xmlns="http://www.w3.org/2000/svg" xmlns:xlink="http://www.w3.org/1999/xlink" width="14px" height="14px" viewBox="0 0 14 14" version="1.1">
<defs>
<filter id="alpha" filterUnits="objectBoundingBox" x="0%" y="0%" width="100%" height="100%">
  <feColorMatrix type="matrix" in="SourceGraphic" values="0 0 0 0 1 0 0 0 0 1 0 0 0 0 1 0 0 0 1 0"/>
</filter>
<mask id="mask0">
  <g filter="url(#alpha)">
<rect x="0" y="0" width="14" height="14" style="fill:rgb(0%,0%,0%);fill-opacity:0.2;stroke:none;"/>
  </g>
</mask>
<clipPath id="clip1">
  <rect x="0" y="0" width="14" height="14"/>
</clipPath>
<g id="surface5" clip-path="url(#clip1)">
<path style=" stroke:none;fill-rule:nonzero;fill:rgb(100%,100%,100%);fill-opacity:1;" d="M 0.875 7.292969 C 0.875 3.753906 3.753906 0.875 7.292969 0.875 C 8.988281 0.875 10.527344 1.539062 11.675781 2.617188 C 10.503906 1.367188 8.84375 0.582031 7 0.582031 C 3.460938 0.582031 0.582031 3.460938 0.582031 7 C 0.582031 8.84375 1.367188 10.503906 2.617188 11.675781 C 1.5 10.488281 0.875 8.921875 0.875 7.292969 Z M 0.875 7.292969 "/>
</g>
<linearGradient id="linear0" gradientUnits="userSpaceOnUse" x1="12" y1="12" x2="19.775" y2="19.774" gradientTransform="matrix(0.583333,0,0,0.583333,0,0)">
<stop offset="0" style="stop-color:rgb(0%,0%,0%);stop-opacity:0.101961;"/>
<stop offset="1" style="stop-color:rgb(0%,0%,0%);stop-opacity:0;"/>
</linearGradient>
<linearGradient id="linear1" gradientUnits="userSpaceOnUse" x1="1.125" y1="6.929" x2="22.875" y2="17.071" gradientTransform="matrix(0.583333,0,0,0.583333,0,0)">
<stop offset="0" style="stop-color:rgb(100%,100%,100%);stop-opacity:0.2;"/>
<stop offset="1" style="stop-color:rgb(100%,100%,100%);stop-opacity:0;"/>
</linearGradient>
</defs>
<g id="surface1">
<path style=" stroke:none;fill-rule:nonzero;fill:rgb(18.823529%,23.529412%,25.882353%);fill-opacity:1;" d="M 7 0 C 3.140625 0 0 3.140625 0 7 C 0 10.859375 3.140625 14 7 14 C 10.859375 14 14 10.859375 14 7 C 14 3.140625 10.859375 0 7 0 Z M 7 0 "/>
<path style=" stroke:none;fill-rule:nonzero;fill:rgb(30.980392%,76.470588%,96.862745%);fill-opacity:1;" d="M 7 13.417969 C 3.460938 13.417969 0.582031 10.539062 0.582031 7 C 0.582031 3.460938 3.460938 0.582031 7 0.582031 C 10.539062 0.582031 13.417969 3.460938 13.417969 7 C 13.417969 10.539062 10.539062 13.417969 7 13.417969 Z M 7 13.417969 "/>
<use xlink:href="#surface5" mask="url(#mask0)"/>
<path style=" stroke:none;fill-rule:nonzero;fill:rgb(18.823529%,23.529412%,25.882353%);fill-opacity:1;" d="M 10.746094 2.84375 L 6.210938 6.144531 L 6.214844 6.148438 C 6.1875 6.167969 6.164062 6.183594 6.144531 6.210938 L 2.84375 10.746094 C 2.761719 10.863281 2.773438 11.023438 2.875 11.125 C 2.976562 11.226562 3.136719 11.238281 3.253906 11.152344 L 7.789062 7.855469 C 7.816406 7.835938 7.832031 7.8125 7.851562 7.785156 L 7.855469 7.789062 L 11.15625 3.253906 C 11.238281 3.136719 11.226562 2.976562 11.125 2.875 C 11.023438 2.773438 10.863281 2.761719 10.746094 2.84375 Z M 10.746094 2.84375 "/>
<path style=" stroke:none;fill-rule:nonzero;fill:rgb(100%,100%,100%);fill-opacity:1;" d="M 4.402344 9.597656 L 6.417969 6.828125 L 7.171875 7.582031 Z M 4.402344 9.597656 "/>
<path style=" stroke:none;fill-rule:nonzero;fill:rgb(95.686275%,26.27451%,21.176471%);fill-opacity:1;" d="M 7.582031 7.171875 L 6.828125 6.417969 L 9.597656 4.402344 Z M 7.582031 7.171875 "/>
<path style=" stroke:none;fill-rule:nonzero;fill:url(#linear0);" d="M 13.003906 4.753906 L 11.125 2.875 C 11.226562 2.976562 11.238281 3.136719 11.15625 3.253906 L 7.855469 7.789062 L 7.851562 7.785156 C 7.832031 7.8125 7.816406 7.835938 7.789062 7.855469 L 3.253906 11.15625 C 3.136719 11.238281 2.976562 11.226562 2.875 11.125 L 4.753906 13.003906 C 5.453125 13.265625 6.207031 13.417969 7 13.417969 C 10.539062 13.417969 13.417969 10.539062 13.417969 7 C 13.417969 6.207031 13.265625 5.453125 13.003906 4.753906 Z M 13.003906 4.753906 "/>
<path style=" stroke:none;fill-rule:nonzero;fill:url(#linear1);" d="M 7 0 C 3.140625 0 0 3.140625 0 7 C 0 10.859375 3.140625 14 7 14 C 10.859375 14 14 10.859375 14 7 C 14 3.140625 10.859375 0 7 0 Z M 7 0 "/>
</g>
</svg>
